<svg width="277" height="168" viewBox="0 0 277 168" fill="none" xmlns="http://www.w3.org/2000/svg">
<mask id="mask0_155_176" style="mask-type:alpha" maskUnits="userSpaceOnUse" x="0" y="0" width="277" height="168">
<g clip-path="url(#clip0_155_176)">
<path d="M258.163 -0.300049H18.6771C8.55965 -0.300049 0.420044 7.8552 0.420044 17.9921V148.408C0.420044 158.545 8.55965 166.7 18.6771 166.7H258.163C268.28 166.7 276.42 158.545 276.42 148.408V17.9921C276.42 7.8552 268.28 -0.300049 258.163 -0.300049Z" fill="black"/>
</g>
</mask>
<g mask="url(#mask0_155_176)">
<rect width="276.64" height="167.07" fill="#043C2F"/>
<path d="M73.1322 91L67.5552 71.5091H72.0567L75.283 85.0518H75.4448L79.0042 71.5091H82.8586L86.4085 85.0804H86.5798L89.806 71.5091H94.3076L88.7306 91H84.7144L81.0028 78.2567H80.8505L77.1484 91H73.1322ZM101.529 91.2855C100.025 91.2855 98.7306 90.981 97.6457 90.3719C96.5671 89.7564 95.7359 88.8872 95.1522 87.7642C94.5685 86.6348 94.2767 85.2993 94.2767 83.7575C94.2767 82.2538 94.5685 80.9341 95.1522 79.7984C95.7359 78.6627 96.5576 77.7777 97.6171 77.1432C98.6831 76.5087 99.933 76.1915 101.367 76.1915C102.331 76.1915 103.229 76.3469 104.06 76.6578C104.898 76.9624 105.627 77.4223 106.249 78.0378C106.877 78.6532 107.366 79.4273 107.715 80.3599C108.064 81.2863 108.238 82.3712 108.238 83.6148V84.7283H95.8946V82.2158H104.422C104.422 81.6321 104.295 81.115 104.041 80.6645C103.787 80.214 103.435 79.8619 102.985 79.6081C102.541 79.348 102.024 79.2179 101.433 79.2179C100.818 79.2179 100.272 79.3607 99.7966 79.6462C99.327 79.9253 98.9591 80.3028 98.6926 80.7787C98.4261 81.2482 98.2897 81.7716 98.2833 82.349V84.7378C98.2833 85.4611 98.4166 86.086 98.6831 86.6126C98.9559 87.1393 99.3397 87.5453 99.8346 87.8308C100.33 88.1163 100.916 88.2591 101.595 88.2591C102.046 88.2591 102.458 88.1956 102.832 88.0688C103.207 87.9419 103.527 87.7515 103.794 87.4977C104.06 87.2439 104.263 86.933 104.403 86.5651L108.153 86.8125C107.962 87.7134 107.572 88.5002 106.982 89.1727C106.398 89.8389 105.643 90.3592 104.717 90.7335C103.797 91.1015 102.734 91.2855 101.529 91.2855ZM134.36 78.3328H130.192C130.115 77.7935 129.96 77.3145 129.725 76.8957C129.491 76.4706 129.189 76.109 128.821 75.8108C128.453 75.5126 128.028 75.2842 127.546 75.1256C127.07 74.967 126.553 74.8876 125.995 74.8876C124.986 74.8876 124.107 75.1383 123.358 75.6395C122.61 76.1344 122.029 76.8577 121.617 77.8094C121.204 78.7547 120.998 79.9031 120.998 81.2545C120.998 82.644 121.204 83.8115 121.617 84.7568C122.036 85.7022 122.619 86.416 123.368 86.8982C124.117 87.3804 124.983 87.6214 125.966 87.6214C126.518 87.6214 127.029 87.5485 127.498 87.4026C127.974 87.2566 128.396 87.0441 128.764 86.7649C129.132 86.4794 129.437 86.1336 129.678 85.7276C129.925 85.3215 130.096 84.8583 130.192 84.3381L134.36 84.3571C134.252 85.2517 133.983 86.1146 133.551 86.9457C133.126 87.7705 132.552 88.5097 131.829 89.1632C131.112 89.8104 130.255 90.3243 129.259 90.705C128.269 91.0793 127.149 91.2665 125.899 91.2665C124.161 91.2665 122.607 90.8731 121.236 90.0864C119.872 89.2996 118.793 88.1607 118 86.6697C117.214 85.1787 116.82 83.3737 116.82 81.2545C116.82 79.1291 117.22 77.3208 118.019 75.8298C118.819 74.3388 119.904 73.2031 121.274 72.4227C122.645 71.636 124.186 71.2426 125.899 71.2426C127.029 71.2426 128.076 71.4012 129.04 71.7185C130.011 72.0357 130.871 72.4989 131.619 73.108C132.368 73.7107 132.977 74.4499 133.446 75.3254C133.922 76.201 134.227 77.2035 134.36 78.3328ZM137.239 91V76.3818H141.17V78.9324H141.322C141.588 78.0251 142.036 77.3399 142.664 76.8767C143.292 76.4072 144.015 76.1724 144.834 76.1724C145.037 76.1724 145.256 76.1851 145.49 76.2105C145.725 76.2359 145.931 76.2708 146.109 76.3152V79.9126C145.919 79.8555 145.655 79.8048 145.319 79.7604C144.983 79.716 144.675 79.6938 144.396 79.6938C143.799 79.6938 143.266 79.8238 142.797 80.0839C142.334 80.3377 141.966 80.693 141.693 81.1499C141.426 81.6067 141.293 82.1333 141.293 82.7297V91H137.239ZM154.186 91.2855C152.683 91.2855 151.388 90.981 150.304 90.3719C149.225 89.7564 148.394 88.8872 147.81 87.7642C147.226 86.6348 146.934 85.2993 146.934 83.7575C146.934 82.2538 147.226 80.9341 147.81 79.7984C148.394 78.6627 149.215 77.7777 150.275 77.1432C151.341 76.5087 152.591 76.1915 154.025 76.1915C154.989 76.1915 155.887 76.3469 156.718 76.6578C157.556 76.9624 158.285 77.4223 158.907 78.0378C159.535 78.6532 160.024 79.4273 160.373 80.3599C160.722 81.2863 160.896 82.3712 160.896 83.6148V84.7283H148.552V82.2158H157.08C157.08 81.6321 156.953 81.115 156.699 80.6645C156.445 80.214 156.093 79.8619 155.643 79.6081C155.198 79.348 154.681 79.2179 154.091 79.2179C153.476 79.2179 152.93 79.3607 152.454 79.6462C151.985 79.9253 151.617 80.3028 151.35 80.7787C151.084 81.2482 150.948 81.7716 150.941 82.349V84.7378C150.941 85.4611 151.074 86.086 151.341 86.6126C151.614 87.1393 151.998 87.5453 152.492 87.8308C152.987 88.1163 153.574 88.2591 154.253 88.2591C154.704 88.2591 155.116 88.1956 155.49 88.0688C155.865 87.9419 156.185 87.7515 156.452 87.4977C156.718 87.2439 156.921 86.933 157.061 86.5651L160.81 86.8125C160.62 87.7134 160.23 88.5002 159.64 89.1727C159.056 89.8389 158.301 90.3592 157.375 90.7335C156.455 91.1015 155.392 91.2855 154.186 91.2855ZM167.71 91.276C166.778 91.276 165.946 91.1142 165.217 90.7906C164.487 90.4607 163.91 89.9753 163.485 89.3345C163.066 88.6874 162.856 87.8816 162.856 86.9172C162.856 86.1051 163.006 85.423 163.304 84.871C163.602 84.319 164.008 83.8749 164.522 83.5386C165.036 83.2024 165.62 82.9486 166.273 82.7773C166.933 82.606 167.625 82.4854 168.348 82.4156C169.198 82.3268 169.883 82.2443 170.404 82.1682C170.924 82.0857 171.301 81.9652 171.536 81.8065C171.771 81.6479 171.888 81.4132 171.888 81.1023V81.0452C171.888 80.4424 171.698 79.9761 171.317 79.6462C170.943 79.3162 170.41 79.1513 169.718 79.1513C168.989 79.1513 168.408 79.3131 167.977 79.6366C167.545 79.9539 167.26 80.3536 167.12 80.8358L163.37 80.5313C163.561 79.643 163.935 78.8753 164.493 78.2281C165.052 77.5746 165.772 77.0734 166.654 76.7244C167.542 76.3691 168.57 76.1915 169.737 76.1915C170.549 76.1915 171.327 76.2866 172.069 76.477C172.818 76.6673 173.481 76.9624 174.058 77.3621C174.642 77.7618 175.102 78.2757 175.438 78.9038C175.774 79.5256 175.942 80.2711 175.942 81.1403V91H172.098V88.9729H171.983C171.749 89.4297 171.435 89.8326 171.041 90.1815C170.648 90.5241 170.175 90.7938 169.623 90.9905C169.071 91.1808 168.433 91.276 167.71 91.276ZM168.871 88.478C169.468 88.478 169.994 88.3606 170.451 88.1259C170.908 87.8848 171.266 87.5612 171.527 87.1551C171.787 86.7491 171.917 86.2891 171.917 85.7751V84.2239C171.79 84.3063 171.615 84.3825 171.393 84.4523C171.178 84.5157 170.933 84.576 170.66 84.6331C170.388 84.6839 170.115 84.7314 169.842 84.7759C169.569 84.8139 169.322 84.8488 169.1 84.8805C168.624 84.9503 168.208 85.0614 167.853 85.2136C167.498 85.3659 167.222 85.5721 167.025 85.8322C166.828 86.086 166.73 86.4033 166.73 86.7839C166.73 87.3359 166.93 87.7579 167.33 88.0497C167.736 88.3352 168.249 88.478 168.871 88.478ZM186.863 76.3818V79.4273H178.06V76.3818H186.863ZM180.059 72.8795H184.113V86.508C184.113 86.8823 184.17 87.1741 184.284 87.3835C184.398 87.5866 184.557 87.7293 184.76 87.8118C184.969 87.8943 185.21 87.9355 185.483 87.9355C185.674 87.9355 185.864 87.9196 186.054 87.8879C186.245 87.8499 186.391 87.8213 186.492 87.8023L187.13 90.8192C186.927 90.8826 186.641 90.9556 186.273 91.0381C185.905 91.1269 185.458 91.1808 184.931 91.1999C183.954 91.2379 183.098 91.1079 182.362 90.8097C181.632 90.5115 181.064 90.0483 180.658 89.4202C180.252 88.792 180.052 87.999 180.059 87.0409V72.8795ZM196.009 91.2855C194.505 91.2855 193.211 90.981 192.126 90.3719C191.048 89.7564 190.216 88.8872 189.633 87.7642C189.049 86.6348 188.757 85.2993 188.757 83.7575C188.757 82.2538 189.049 80.9341 189.633 79.7984C190.216 78.6627 191.038 77.7777 192.098 77.1432C193.164 76.5087 194.413 76.1915 195.847 76.1915C196.812 76.1915 197.71 76.3469 198.541 76.6578C199.378 76.9624 200.108 77.4223 200.73 78.0378C201.358 78.6532 201.846 79.4273 202.195 80.3599C202.544 81.2863 202.719 82.3712 202.719 83.6148V84.7283H190.375V82.2158H198.902C198.902 81.6321 198.775 81.115 198.522 80.6645C198.268 80.214 197.916 79.8619 197.465 79.6081C197.021 79.348 196.504 79.2179 195.914 79.2179C195.299 79.2179 194.753 79.3607 194.277 79.6462C193.808 79.9253 193.44 80.3028 193.173 80.7787C192.907 81.2482 192.77 81.7716 192.764 82.349V84.7378C192.764 85.4611 192.897 86.086 193.164 86.6126C193.436 87.1393 193.82 87.5453 194.315 87.8308C194.81 88.1163 195.397 88.2591 196.076 88.2591C196.526 88.2591 196.939 88.1956 197.313 88.0688C197.687 87.9419 198.008 87.7515 198.274 87.4977C198.541 87.2439 198.744 86.933 198.883 86.5651L202.633 86.8125C202.443 87.7134 202.052 88.5002 201.462 89.1727C200.879 89.8389 200.124 90.3592 199.197 90.7335C198.277 91.1015 197.215 91.2855 196.009 91.2855Z" fill="#FCFAFF"/>
<path d="M48.4677 114H46.5565L52.0843 98.9455H53.9661L59.494 114H57.5827L53.084 101.327H52.9664L48.4677 114ZM49.1734 108.119H56.877V109.737H49.1734V108.119ZM63.3384 98.9455V114H61.6036V98.9455H63.3384ZM68.2507 98.9455V114H66.5159V98.9455H68.2507ZM77.4852 114V98.9455H79.3082V106.414H79.4846L86.2474 98.9455H88.6291L82.3073 105.738L88.6291 114H86.4238L81.19 107.002L79.3082 109.119V114H77.4852ZM91.461 114V102.709H93.1958V114H91.461ZM92.3431 100.827C92.0049 100.827 91.7134 100.712 91.4683 100.482C91.2282 100.251 91.1081 99.9746 91.1081 99.6511C91.1081 99.3277 91.2282 99.0508 91.4683 98.8205C91.7134 98.5902 92.0049 98.475 92.3431 98.475C92.6812 98.475 92.9703 98.5902 93.2105 98.8205C93.4555 99.0508 93.578 99.3277 93.578 99.6511C93.578 99.9746 93.4555 100.251 93.2105 100.482C92.9703 100.712 92.6812 100.827 92.3431 100.827ZM98.108 107.208V114H96.3732V102.709H98.0492V104.473H98.1962C98.4608 103.9 98.8627 103.439 99.4017 103.091C99.9408 102.738 100.637 102.562 101.489 102.562C102.254 102.562 102.923 102.719 103.496 103.033C104.07 103.341 104.515 103.812 104.834 104.444C105.153 105.071 105.312 105.865 105.312 106.826V114H103.577V106.943C103.577 106.056 103.347 105.365 102.886 104.87C102.425 104.37 101.793 104.12 100.99 104.12C100.436 104.12 99.9408 104.241 99.5046 104.481C99.0734 104.721 98.7328 105.071 98.4829 105.532C98.2329 105.992 98.108 106.551 98.108 107.208ZM112.745 114.235C111.804 114.235 110.974 113.998 110.253 113.522C109.533 113.042 108.969 112.366 108.563 111.493C108.156 110.616 107.953 109.58 107.953 108.384C107.953 107.198 108.156 106.169 108.563 105.297C108.969 104.424 109.535 103.75 110.261 103.275C110.986 102.8 111.824 102.562 112.775 102.562C113.51 102.562 114.091 102.685 114.517 102.93C114.948 103.17 115.277 103.444 115.502 103.753C115.732 104.057 115.911 104.307 116.039 104.503H116.186V98.9455H117.92V114H116.244V112.265H116.039C115.911 112.471 115.73 112.731 115.495 113.044C115.259 113.353 114.924 113.63 114.488 113.875C114.051 114.115 113.471 114.235 112.745 114.235ZM112.981 112.677C113.676 112.677 114.265 112.496 114.745 112.133C115.225 111.765 115.59 111.258 115.84 110.611C116.09 109.959 116.215 109.207 116.215 108.355C116.215 107.512 116.092 106.774 115.847 106.142C115.602 105.505 115.24 105.01 114.76 104.657C114.279 104.299 113.686 104.12 112.981 104.12C112.246 104.12 111.633 104.309 111.143 104.686C110.658 105.059 110.293 105.566 110.048 106.208C109.807 106.845 109.687 107.561 109.687 108.355C109.687 109.158 109.81 109.888 110.055 110.545C110.305 111.197 110.672 111.716 111.158 112.103C111.648 112.486 112.255 112.677 112.981 112.677ZM129.336 105.238L127.778 105.679C127.68 105.419 127.535 105.167 127.344 104.922C127.158 104.672 126.903 104.466 126.58 104.304C126.256 104.143 125.842 104.062 125.337 104.062C124.646 104.062 124.071 104.221 123.61 104.539C123.154 104.853 122.926 105.252 122.926 105.738C122.926 106.169 123.083 106.509 123.397 106.759C123.71 107.009 124.2 107.218 124.867 107.384L126.543 107.796C127.552 108.041 128.305 108.416 128.8 108.921C129.295 109.42 129.542 110.065 129.542 110.854C129.542 111.501 129.356 112.079 128.983 112.589C128.616 113.098 128.101 113.5 127.44 113.794C126.778 114.088 126.009 114.235 125.132 114.235C123.98 114.235 123.027 113.985 122.272 113.485C121.517 112.986 121.04 112.255 120.839 111.295L122.485 110.883C122.642 111.491 122.939 111.947 123.375 112.25C123.816 112.554 124.392 112.706 125.102 112.706C125.911 112.706 126.553 112.535 127.028 112.192C127.508 111.844 127.748 111.427 127.748 110.942C127.748 110.55 127.611 110.222 127.337 109.957C127.062 109.687 126.641 109.487 126.072 109.354L124.191 108.913C123.157 108.668 122.397 108.288 121.912 107.774C121.432 107.254 121.191 106.605 121.191 105.826C121.191 105.189 121.37 104.625 121.728 104.135C122.091 103.645 122.583 103.26 123.206 102.981C123.833 102.702 124.543 102.562 125.337 102.562C126.455 102.562 127.332 102.807 127.969 103.297C128.611 103.787 129.067 104.434 129.336 105.238ZM150.913 106.473C150.913 108.061 150.626 109.433 150.053 110.589C149.479 111.746 148.693 112.638 147.693 113.265C146.693 113.892 145.552 114.206 144.268 114.206C142.984 114.206 141.842 113.892 140.842 113.265C139.842 112.638 139.056 111.746 138.483 110.589C137.909 109.433 137.622 108.061 137.622 106.473C137.622 104.885 137.909 103.513 138.483 102.356C139.056 101.2 139.842 100.308 140.842 99.6805C141.842 99.0533 142.984 98.7396 144.268 98.7396C145.552 98.7396 146.693 99.0533 147.693 99.6805C148.693 100.308 149.479 101.2 150.053 102.356C150.626 103.513 150.913 104.885 150.913 106.473ZM149.149 106.473C149.149 105.169 148.931 104.069 148.494 103.172C148.063 102.275 147.478 101.597 146.738 101.136C146.002 100.675 145.179 100.445 144.268 100.445C143.356 100.445 142.53 100.675 141.79 101.136C141.055 101.597 140.47 102.275 140.034 103.172C139.602 104.069 139.387 105.169 139.387 106.473C139.387 107.776 139.602 108.876 140.034 109.773C140.47 110.67 141.055 111.349 141.79 111.809C142.53 112.27 143.356 112.5 144.268 112.5C145.179 112.5 146.002 112.27 146.738 111.809C147.478 111.349 148.063 110.67 148.494 109.773C148.931 108.876 149.149 107.776 149.149 106.473ZM158.771 102.709V104.179H152.684V102.709H158.771ZM154.507 114V101.151C154.507 100.504 154.659 99.9648 154.963 99.5335C155.267 99.1023 155.661 98.7788 156.147 98.5632C156.632 98.3476 157.144 98.2398 157.683 98.2398C158.109 98.2398 158.457 98.2741 158.727 98.3427C158.996 98.4113 159.197 98.475 159.33 98.5338L158.83 100.033C158.741 100.004 158.619 99.9672 158.462 99.9231C158.31 99.879 158.109 99.857 157.859 99.857C157.286 99.857 156.872 100.002 156.617 100.291C156.367 100.58 156.242 101.004 156.242 101.562V114H154.507ZM167.259 114V98.9455H169.082V112.383H176.08V114H167.259ZM183.255 114.235C182.235 114.235 181.341 113.993 180.572 113.507C179.807 113.022 179.209 112.344 178.778 111.471C178.352 110.599 178.139 109.58 178.139 108.413C178.139 107.237 178.352 106.211 178.778 105.333C179.209 104.456 179.807 103.775 180.572 103.29C181.341 102.805 182.235 102.562 183.255 102.562C184.274 102.562 185.166 102.805 185.93 103.29C186.7 103.775 187.298 104.456 187.724 105.333C188.155 106.211 188.371 107.237 188.371 108.413C188.371 109.58 188.155 110.599 187.724 111.471C187.298 112.344 186.7 113.022 185.93 113.507C185.166 113.993 184.274 114.235 183.255 114.235ZM183.255 112.677C184.029 112.677 184.666 112.478 185.166 112.081C185.666 111.684 186.036 111.163 186.276 110.516C186.516 109.869 186.636 109.168 186.636 108.413C186.636 107.659 186.516 106.955 186.276 106.304C186.036 105.652 185.666 105.125 185.166 104.723C184.666 104.321 184.029 104.12 183.255 104.12C182.48 104.12 181.843 104.321 181.344 104.723C180.844 105.125 180.474 105.652 180.234 106.304C179.993 106.955 179.873 107.659 179.873 108.413C179.873 109.168 179.993 109.869 180.234 110.516C180.474 111.163 180.844 111.684 181.344 112.081C181.843 112.478 182.48 112.677 183.255 112.677ZM195.577 118.469C194.739 118.469 194.018 118.362 193.415 118.146C192.813 117.935 192.31 117.656 191.909 117.308C191.512 116.965 191.195 116.597 190.96 116.205L192.342 115.235C192.499 115.441 192.698 115.676 192.938 115.941C193.178 116.21 193.506 116.443 193.923 116.639C194.344 116.84 194.895 116.94 195.577 116.94C196.488 116.94 197.24 116.72 197.833 116.279C198.426 115.838 198.723 115.147 198.723 114.206V111.912H198.576C198.448 112.118 198.267 112.373 198.032 112.677C197.801 112.976 197.468 113.243 197.032 113.478C196.601 113.708 196.018 113.824 195.283 113.824C194.371 113.824 193.553 113.608 192.827 113.177C192.107 112.745 191.536 112.118 191.115 111.295C190.698 110.472 190.49 109.472 190.49 108.296C190.49 107.139 190.693 106.132 191.1 105.275C191.507 104.412 192.073 103.746 192.798 103.275C193.523 102.8 194.361 102.562 195.312 102.562C196.047 102.562 196.63 102.685 197.061 102.93C197.498 103.17 197.831 103.444 198.061 103.753C198.296 104.057 198.478 104.307 198.605 104.503H198.782V102.709H200.458V114.323C200.458 115.294 200.237 116.083 199.796 116.69C199.36 117.303 198.772 117.751 198.032 118.036C197.297 118.325 196.478 118.469 195.577 118.469ZM195.518 112.265C196.214 112.265 196.802 112.106 197.282 111.787C197.762 111.469 198.127 111.011 198.377 110.413C198.627 109.815 198.752 109.099 198.752 108.266C198.752 107.453 198.63 106.735 198.385 106.113C198.14 105.49 197.777 105.003 197.297 104.65C196.816 104.297 196.223 104.12 195.518 104.12C194.783 104.12 194.17 104.307 193.68 104.679C193.195 105.052 192.83 105.551 192.585 106.179C192.345 106.806 192.225 107.502 192.225 108.266C192.225 109.05 192.347 109.744 192.592 110.347C192.842 110.944 193.21 111.415 193.695 111.758C194.185 112.096 194.793 112.265 195.518 112.265ZM208.22 114.235C207.201 114.235 206.306 113.993 205.537 113.507C204.773 113.022 204.175 112.344 203.743 111.471C203.317 110.599 203.104 109.58 203.104 108.413C203.104 107.237 203.317 106.211 203.743 105.333C204.175 104.456 204.773 103.775 205.537 103.29C206.306 102.805 207.201 102.562 208.22 102.562C209.239 102.562 210.131 102.805 210.896 103.29C211.665 103.775 212.263 104.456 212.689 105.333C213.121 106.211 213.336 107.237 213.336 108.413C213.336 109.58 213.121 110.599 212.689 111.471C212.263 112.344 211.665 113.022 210.896 113.507C210.131 113.993 209.239 114.235 208.22 114.235ZM208.22 112.677C208.994 112.677 209.631 112.478 210.131 112.081C210.631 111.684 211.001 111.163 211.241 110.516C211.481 109.869 211.601 109.168 211.601 108.413C211.601 107.659 211.481 106.955 211.241 106.304C211.001 105.652 210.631 105.125 210.131 104.723C209.631 104.321 208.994 104.12 208.22 104.12C207.446 104.12 206.809 104.321 206.309 104.723C205.809 105.125 205.439 105.652 205.199 106.304C204.959 106.955 204.839 107.659 204.839 108.413C204.839 109.168 204.959 109.869 205.199 110.516C205.439 111.163 205.809 111.684 206.309 112.081C206.809 112.478 207.446 112.677 208.22 112.677ZM223.982 105.238L222.424 105.679C222.326 105.419 222.181 105.167 221.99 104.922C221.804 104.672 221.549 104.466 221.226 104.304C220.902 104.143 220.488 104.062 219.983 104.062C219.292 104.062 218.716 104.221 218.256 104.539C217.8 104.853 217.572 105.252 217.572 105.738C217.572 106.169 217.729 106.509 218.043 106.759C218.356 107.009 218.846 107.218 219.513 107.384L221.189 107.796C222.198 108.041 222.951 108.416 223.446 108.921C223.94 109.42 224.188 110.065 224.188 110.854C224.188 111.501 224.002 112.079 223.629 112.589C223.262 113.098 222.747 113.5 222.086 113.794C221.424 114.088 220.655 114.235 219.777 114.235C218.626 114.235 217.673 113.985 216.918 113.485C216.163 112.986 215.685 112.255 215.485 111.295L217.131 110.883C217.288 111.491 217.584 111.947 218.021 112.25C218.462 112.554 219.037 112.706 219.748 112.706C220.557 112.706 221.199 112.535 221.674 112.192C222.154 111.844 222.394 111.427 222.394 110.942C222.394 110.55 222.257 110.222 221.983 109.957C221.708 109.687 221.287 109.487 220.718 109.354L218.837 108.913C217.803 108.668 217.043 108.288 216.558 107.774C216.078 107.254 215.837 106.605 215.837 105.826C215.837 105.189 216.016 104.625 216.374 104.135C216.737 103.645 217.229 103.26 217.852 102.981C218.479 102.702 219.189 102.562 219.983 102.562C221.101 102.562 221.978 102.807 222.615 103.297C223.257 103.787 223.713 104.434 223.982 105.238ZM229.093 98.9455L228.946 109.766H227.24L227.093 98.9455H229.093ZM228.093 114.118C227.73 114.118 227.419 113.988 227.16 113.728C226.9 113.468 226.77 113.157 226.77 112.794C226.77 112.432 226.9 112.121 227.16 111.861C227.419 111.601 227.73 111.471 228.093 111.471C228.456 111.471 228.767 111.601 229.027 111.861C229.286 112.121 229.416 112.432 229.416 112.794C229.416 113.035 229.355 113.255 229.232 113.456C229.115 113.657 228.956 113.819 228.755 113.941C228.559 114.059 228.338 114.118 228.093 114.118Z" fill="#FCFAFF"/>
</g>
<defs>
<clipPath id="clip0_155_176">
<rect width="276.64" height="167.07" fill="white"/>
</clipPath>
</defs>
</svg>
